# Blender 5.1.0
# www.blender.org
mtllib dado_emociones.mtl
o Cube
v 1.000000 1.000000 -1.000000
v 1.000000 -1.000000 -1.000000
v 1.000000 1.000000 1.000000
v 1.000000 -1.000000 1.000000
v -1.000000 1.000000 -1.000000
v -1.000000 -1.000000 -1.000000
v -1.000000 1.000000 1.000000
v -1.000000 -1.000000 1.000000
vn -0.0000 1.0000 -0.0000
vn -0.0000 -0.0000 1.0000
vn -1.0000 -0.0000 -0.0000
vn -0.0000 -1.0000 -0.0000
vn 1.0000 -0.0000 -0.0000
vn -0.0000 -0.0000 -1.0000
vt 0.672871 0.506875
vt 0.996645 0.506875
vt 0.996645 0.743125
vt 0.672871 0.743125
vt 0.662708 0.760234
vt 0.662708 0.989766
vt 0.337292 0.989766
vt 0.337292 0.760234
vt 0.659006 0.009056
vt 0.659006 0.240944
vt 0.340994 0.240944
vt 0.340994 0.009056
vt 0.017345 0.510000
vt 0.318790 0.510000
vt 0.318790 0.740000
vt 0.017345 0.740000
vt 0.660243 0.509983
vt 0.660243 0.740017
vt 0.339757 0.740017
vt 0.339757 0.509983
vt 0.654962 0.257791
vt 0.654962 0.492209
vt 0.342212 0.492209
vt 0.342212 0.257791
s 0
usemtl Material
f 1/1/1 5/2/1 7/3/1 3/4/1
f 4/5/2 3/6/2 7/7/2 8/8/2
f 8/9/3 7/10/3 5/11/3 6/12/3
f 6/13/4 2/14/4 4/15/4 8/16/4
f 2/17/5 1/18/5 3/19/5 4/20/5
f 6/21/6 5/22/6 1/23/6 2/24/6
